<?xml version="1.0"?>
<svg xmlns="http://www.w3.org/2000/svg" height="512px" viewBox="0 -47 512 512" width="512px" class=""><g><path d="m294.511719 222.082031c-.652344 0-1.3125-.070312-1.953125-.199219-.636719-.128906-1.269532-.320312-1.867188-.570312-.613281-.25-1.191406-.558594-1.730468-.917969-.550782-.363281-1.0625-.78125-1.519532-1.242187-.460937-.460938-.882812-.96875-1.242187-1.519532-.359375-.539062-.667969-1.128906-.917969-1.730468-.25-.597656-.441406-1.230469-.570312-1.871094-.132813-.636719-.199219-1.296875-.199219-1.949219 0-.648437.066406-1.308593.199219-1.960937.128906-.628906.320312-1.257813.570312-1.867188.25-.601562.558594-1.179687.917969-1.722656.359375-.546875.78125-1.058594 1.242187-1.519531.457032-.46875.96875-.878907 1.519532-1.25.539062-.359375 1.117187-.667969 1.730468-.917969.597656-.25 1.230469-.441406 1.867188-.570312 3.25-.652344 6.703125.410156 9.019531 2.738281.460937.460937.882813.972656 1.25 1.519531.363281.542969.671875 1.121094.921875 1.722656.25.609375.441406 1.238282.570312 1.867188.128907.652344.191407 1.3125.191407 1.960937 0 .652344-.0625 1.3125-.191407 1.949219-.128906.640625-.320312 1.273438-.570312 1.871094-.25.609375-.558594 1.191406-.921875 1.730468-.367187.550782-.789063 1.058594-1.25 1.519532-.457031.460937-.96875.878906-1.519531 1.242187-.539063.359375-1.117188.667969-1.71875.917969-.609375.25-1.238282.441406-1.871094.570312-.648438.128907-1.308594.199219-1.957031.199219zm0 0" data-original="#000000" class="active-path" data-old_color="#000000" fill="#66D2EA"/><path d="m256.074219 250.070312c-1.949219 0-3.917969-.570312-5.648438-1.757812-6.945312-4.765625-68.257812-47.160156-81.472656-67.214844-5.457031-8.28125-12.597656-21.421875-11.613281-39.84375.769531-14.390625 6.859375-27.898437 17.148437-38.042968 10.480469-10.328126 24.175781-16.015626 38.566407-16.015626 19.179687 0 34.363281 12.144532 43.09375 21.3125 8.917968-9.121093 24.296874-21.3125 42.792968-21.3125 14.394532 0 28.089844 5.6875 38.566406 16.015626 10.292969 10.144531 16.382813 23.652343 17.152344 38.042968.984375 18.378906-6.148437 31.535156-11.605468 39.832032-3.03125 4.613281-9.234376 5.898437-13.847657 2.863281-4.613281-3.035157-5.898437-9.234375-2.863281-13.847657 6.375-9.699218 8.871094-18.003906 8.34375-27.777343-1.035156-19.371094-17.074219-35.128907-35.746094-35.128907-18.359375 0-34.601562 22.355469-34.761718 22.582032-1.898438 2.703125-5.027344 4.277344-8.3125 4.246094-3.304688-.046876-6.371094-1.71875-8.195313-4.46875-.136719-.199219-15.253906-22.359376-34.617187-22.359376-18.675782 0-34.710938 15.757813-35.746094 35.125-.523438 9.796876 1.96875 18.105469 8.339844 27.769532 8.332031 12.644531 51.09375 44.574218 76.09375 61.730468 4.550781 3.125 5.710937 9.351563 2.585937 13.90625-1.9375 2.824219-5.070313 4.34375-8.253906 4.34375zm0 0" data-original="#000000" class="active-path" data-old_color="#000000" fill="#66D2EA"/><path d="m502 283.847656h-48.667969c-5.523437 0-10 4.476563-10 10v.371094h-14.691406l-5.128906-17.191406c-4.839844-22.164063-24.714844-38.203125-47.4375-38.203125h-37.023438c-9.699219 0-18.796875 5.269531-23.117187 13.953125-2.007813 4.03125-2.871094 8.371094-2.636719 12.632812h-21.082031c-.316406 0-.628906.015625-.941406.046875-13.4375 1.371094-23.679688 13.109375-23.292969 26.65625.109375 3.921875 1.113281 7.644531 2.820312 10.96875-5.976562 4.808594-9.792969 12.203125-9.792969 20.378907 0 6 2.058594 11.574218 5.515626 16.019531-3.457032 4.425781-5.515626 9.980469-5.515626 15.953125 0 6.929687 2.699219 13.457031 7.621094 18.386718 1.058594 1.054688 2.199219 2.011719 3.40625 2.863282-1.574218 3.488281-2.402344 7.378906-2.292968 11.464844.378906 13.425781 11.332031 24.503906 24.949218 25.21875.300782.015624.300782.015624 78.722656.035156 30.488282 0 46.277344-16.003906 53.695313-27.578125 3.59375-5.605469.738281-13.09375-5.65625-14.957031-4.25-1.238282-8.769531.484374-11.207031 4.179687-4.851563 7.359375-15.65625 18.351563-36.828125 18.351563-.75 0-72.652344-.015626-77.890625-.019532-3.179688-.261718-5.707032-2.773437-5.792969-5.789062-.085937-3.210938 2.332031-5.90625 5.507813-6.140625.082031-.003907.160156-.011719.242187-.019531h9.492187c5.523438 0 10-4.476563 10-10 0-5.523438-4.476562-10-10-10l-18.683593-.058594c-1.328125-.148438-2.574219-.753906-3.523438-1.695313-1.132812-1.140625-1.761719-2.648437-1.761719-4.246093 0-3.003907 2.253907-5.546876 5.191407-5.925782h18.832031c5.523438 0 10-4.480468 10-10 0-5.523437-4.476562-10-10-10h-18.726562c-2.988282-.335937-5.296876-2.945312-5.296876-6.046875 0-3.089843 2.289063-5.695312 5.253907-6.046875h18.714843c5.523438 0 10-4.476562 10-10 0-5.523437-4.476562-10-10-10h-11.222656c-3.121094-.257812-5.695312-2.847656-5.78125-5.863281-.085937-3.007813 2.042969-5.625 4.910156-6.136719h75.78125c5.746094 0 10.355469-4.84375 9.980469-10.667968-.34375-5.3125-4.996093-9.332032-10.320312-9.332032h-34.867188c-.46875-1.609375.039063-3.015625.351563-3.660156.421875-.882812 1.726562-2.929688 4.660156-2.929688h37.605469c13.425781 0 25.164062 9.523438 27.933593 22.652344.0625.300782.136719.597656.222657.886719l7.375 24.714844c1.261719 4.238281 5.160156 7.140625 9.582031 7.140625h22.144531v70.941406c0 5.523438 4.476563 10 10 10h48.667969c5.523438 0 10-4.476562 10-10v-91.3125c0-5.519531-4.476562-9.996094-10-9.996094zm-10 91.3125h-28.667969v-71.3125h28.667969zm0 0" data-original="#000000" class="active-path" data-old_color="#000000" fill="#66D2EA"/><path d="m250.992188 329.042969c0-8.175781-3.816407-15.566407-9.792969-20.378907 1.707031-3.320312 2.710937-7.042968 2.820312-10.964843.386719-13.550781-9.855469-25.289063-23.292969-26.660157-.3125-.03125-.625-.046874-.941406-.046874h-21.082031c.234375-4.257813-.628906-8.597657-2.632813-12.625-4.316406-8.6875-13.421874-13.960938-23.121093-13.960938h-37.023438c-22.722656 0-42.597656 16.039062-47.4375 38.203125l-5.128906 17.191406h-14.695313v-.371093c0-5.523438-4.476562-10-10-10h-48.664062c-5.523438 0-10 4.476562-10 10v91.3125c0 5.523437 4.476562 10 10 10h48.664062c5.523438 0 10-4.476563 10-10v-70.9375h22.148438c4.421875 0 8.320312-2.90625 9.582031-7.144532l7.375-24.714844c.078125-.257812.144531-.523437.203125-.789062 2.761719-13.042969 13.636719-22.746094 26.96875-22.746094h38.589844c2.933594 0 4.238281 2.046875 4.664062 2.925782.308594.644531.816407 2.050781.347657 3.660156h-35.207031c-5.742188 0-10.355469 4.839844-9.976563 10.664062.34375 5.316406 4.992187 9.335938 10.320313 9.335938h75.441406c2.867187.511718 4.996094 3.128906 4.910156 6.140625s-2.664062 5.605469-5.78125 5.859375h-11.226562c-5.523438 0-10 4.476562-10 10 0 5.523437 4.476562 10 10 10 0 0 18.234374.003906 18.714843 0 2.964844.351562 5.253907 2.957031 5.253907 6.046875 0 3.101562-2.308594 5.714843-5.296876 6.046875h-18.726562c-5.523438 0-10 4.476562-10 10 0 5.519531 4.476562 10 10 10h18.835938c2.933593.378906 5.1875 2.921875 5.1875 5.925781 0 1.601563-.625 3.109375-1.742188 4.226563-.964844.960937-2.214844 1.566406-3.542969 1.71875l-18.683593.054687c-5.523438 0-10 4.476563-10 10s4.476562 10 10 10h9.476562c.078125.007813.160156.015625.238281.019531 3.1875.222656 5.617188 2.925782 5.527344 6.136719-.082031 3.003906-2.582031 5.503906-5.816406 5.792969-5.4375.003906-77.117188.023437-77.859375.023437-21.433594 0-32.351563-11.597656-37.097656-18.898437-2.175782-3.34375-6.265626-4.882813-10.101563-3.792969l-1.914063.542969c-5.761718 1.636718-8.417968 8.320312-5.296874 13.433594 7.101562 11.632812 22.910156 28.714843 54.410156 28.714843 78.472656-.019531 78.472656-.019531 78.734375-.039062 13.605469-.710938 24.558593-11.789063 24.9375-25.222657.109375-4.082031-.71875-7.976562-2.296875-11.460937 1.214844-.855469 2.363281-1.816406 3.425781-2.878906 4.902344-4.914063 7.601563-11.4375 7.601563-18.367188 0-5.976562-2.058594-11.527343-5.515626-15.957031 3.457032-4.441406 5.515626-10.019531 5.515626-16.019531zm-230.992188-19.609375h28.664062v71.308594h-28.664062zm0 0" data-original="#000000" class="active-path" data-old_color="#000000" fill="#66D2EA"/><path d="m256 31.625c-5.523438 0-10-4.476562-10-10v-11.625c0-5.523438 4.476562-10 10-10s10 4.476562 10 10v11.625c0 5.523438-4.476562 10-10 10zm0 0" data-original="#000000" class="active-path" data-old_color="#000000" fill="#66D2EA"/><path d="m149.121094 71.753906c-2.5625 0-5.121094-.980468-7.070313-2.929687l-5.292969-5.292969c-3.902343-3.902344-3.902343-10.234375.003907-14.140625 3.902343-3.90625 10.234375-3.902344 14.140625 0l5.289062 5.292969c3.90625 3.902344 3.90625 10.234375 0 14.140625-1.953125 1.953125-4.511718 2.929687-7.070312 2.929687zm0 0" data-original="#000000" class="active-path" data-old_color="#000000" fill="#66D2EA"/><path d="m362.878906 71.753906c-2.558594 0-5.117187-.976562-7.070312-2.929687-3.90625-3.90625-3.90625-10.238281 0-14.144531l5.289062-5.289063c3.90625-3.90625 10.238282-3.90625 14.140625 0 3.90625 3.90625 3.90625 10.238281 0 14.140625l-5.289062 5.289062c-1.949219 1.957032-4.511719 2.933594-7.070313 2.933594zm0 0" data-original="#000000" class="active-path" data-old_color="#000000" fill="#66D2EA"/><path d="m414.632812 178.632812h-11.625c-5.523437 0-10-4.476562-10-10 0-5.523437 4.476563-10 10-10h11.625c5.523438 0 10 4.476563 10 10 0 5.523438-4.476562 10-10 10zm0 0" data-original="#000000" class="active-path" data-old_color="#000000" fill="#66D2EA"/><path d="m108.992188 178.632812h-11.625c-5.523438 0-10-4.476562-10-10 0-5.523437 4.476562-10 10-10h11.625c5.523437 0 10 4.476563 10 10 0 5.523438-4.476563 10-10 10zm0 0" data-original="#000000" class="active-path" data-old_color="#000000" fill="#66D2EA"/></g> </svg>
